<svg width="33" height="32" viewBox="0 0 33 32" fill="none" xmlns="http://www.w3.org/2000/svg">
<path d="M6.57117 8.04216L14.2739 3.53802C15.5056 2.81777 17.0301 2.81777 18.2618 3.53802L25.9645 8.04216C27.176 8.75059 27.9207 10.0487 27.9207 11.4521V20.5479C27.9207 21.9513 27.176 23.2494 25.9645 23.9578L18.2618 28.4619C17.0301 29.1822 15.5056 29.1822 14.2739 28.4619L6.57117 23.9578C5.35965 23.2494 4.61499 21.9513 4.61499 20.5479V11.4521C4.61499 10.0486 5.35965 8.75059 6.57117 8.04216Z" fill="white" stroke="#251E1E" stroke-width="2.76508"/>
<path fill-rule="evenodd" clip-rule="evenodd" d="M23.3251 11.7073C23.8467 11.4022 23.8467 10.6484 23.3251 10.3433L17.2649 6.79945C16.649 6.4393 15.8867 6.4393 15.2708 6.79945L9.2106 10.3433C8.68897 10.6484 8.68897 11.4022 9.2106 11.7073L15.2708 15.2511C15.8867 15.6113 16.649 15.6113 17.2649 15.2511L23.3251 11.7073Z" fill="#251E1E"/>
</svg>
